<svg width="20" height="20" viewBox="0 0 20 20" fill="none" xmlns="http://www.w3.org/2000/svg">
<path d="M3.00003 9C3.00003 9.266 2.89503 9.52 2.70703 9.707L2.41403 10L2.70703 10.293C2.80007 10.3857 2.87386 10.4959 2.92415 10.6172C2.97443 10.7386 3.00022 10.8687 3.00003 11V15C3.00003 15.2652 3.10539 15.5196 3.29292 15.7071C3.48046 15.8946 3.73481 16 4.00003 16C4.26525 16 4.5196 16.1054 4.70714 16.2929C4.89467 16.4804 5.00003 16.7348 5.00003 17C5.00003 17.2652 4.89467 17.5196 4.70714 17.7071C4.5196 17.8946 4.26525 18 4.00003 18C2.34603 18 1.00003 16.654 1.00003 15V11.414L0.293031 10.707C0.10556 10.5195 0.000244141 10.2652 0.000244141 10C0.000244141 9.73484 0.10556 9.48053 0.293031 9.293L1.00003 8.586V5C1.00003 3.346 2.34603 2 4.00003 2C4.26525 2 4.5196 2.10536 4.70714 2.29289C4.89467 2.48043 5.00003 2.73478 5.00003 3C5.00003 3.26522 4.89467 3.51957 4.70714 3.70711C4.5196 3.89464 4.26525 4 4.00003 4C3.73481 4 3.48046 4.10536 3.29292 4.29289C3.10539 4.48043 3.00003 4.73478 3.00003 5V9ZM19.707 9.293C19.8943 9.48066 19.9994 9.73492 19.9994 10C19.9994 10.2651 19.8943 10.5193 19.707 10.707L19 11.414V15C19 16.654 17.654 18 16 18C15.7348 18 15.4805 17.8946 15.2929 17.7071C15.1054 17.5196 15 17.2652 15 17C15 16.7348 15.1054 16.4804 15.2929 16.2929C15.4805 16.1054 15.7348 16 16 16C16.2652 16 16.5196 15.8946 16.7071 15.7071C16.8947 15.5196 17 15.2652 17 15V11C17 10.734 17.105 10.48 17.293 10.293L17.586 10L17.293 9.707C17.2 9.61429 17.1262 9.5041 17.0759 9.38276C17.0256 9.26143 16.9998 9.13134 17 9V5C17 4.73478 16.8947 4.48043 16.7071 4.29289C16.5196 4.10536 16.2652 4 16 4C15.7348 4 15.4805 3.89464 15.2929 3.70711C15.1054 3.51957 15 3.26522 15 3C15 2.73478 15.1054 2.48043 15.2929 2.29289C15.4805 2.10536 15.7348 2 16 2C17.654 2 19 3.346 19 5V8.586L19.707 9.293ZM13 9C13.2652 9 13.5196 9.10536 13.7071 9.29289C13.8947 9.48043 14 9.73478 14 10C14 10.2652 13.8947 10.5196 13.7071 10.7071C13.5196 10.8946 13.2652 11 13 11H11V13C11 13.2652 10.8947 13.5196 10.7071 13.7071C10.5196 13.8946 10.2652 14 10 14C9.73481 14 9.48046 13.8946 9.29292 13.7071C9.10539 13.5196 9.00003 13.2652 9.00003 13V11H7.00003C6.73481 11 6.48046 10.8946 6.29292 10.7071C6.10539 10.5196 6.00003 10.2652 6.00003 10C6.00003 9.73478 6.10539 9.48043 6.29292 9.29289C6.48046 9.10536 6.73481 9 7.00003 9H9.00003V7C9.00003 6.73478 9.10539 6.48043 9.29292 6.29289C9.48046 6.10536 9.73481 6 10 6C10.2652 6 10.5196 6.10536 10.7071 6.29289C10.8947 6.48043 11 6.73478 11 7V9H13Z" fill="#5C5F62"/>
</svg>
