<svg width="20" height="20" viewBox="0 0 20 20" fill="none" xmlns="http://www.w3.org/2000/svg">
<path d="M9.99998 0C10.2652 0 10.5196 0.105357 10.7071 0.292893C10.8946 0.48043 11 0.734784 11 1V3.032L10.999 3.053L10.997 3.083C12.3956 3.31909 13.6654 4.04287 14.5812 5.126C15.4971 6.20912 15.9997 7.58159 16 9C16 12.093 16.625 13.312 17.599 15.21L17.633 15.278C17.803 15.608 17.563 16 17.191 16H2.80898C2.724 16.0001 2.64042 15.9783 2.56626 15.9368C2.4921 15.8953 2.42985 15.8355 2.38548 15.763C2.3411 15.6905 2.3161 15.6078 2.31286 15.5229C2.30962 15.438 2.32826 15.3536 2.36698 15.278L2.40098 15.21C3.37498 13.312 3.99998 12.093 3.99998 9C4.00005 7.58142 4.50257 6.20871 5.4184 5.12538C6.33424 4.04205 7.60419 3.31811 9.00298 3.082L9.00098 3.042C9.00029 3.02801 8.99996 3.01401 8.99998 3V1C8.99998 0.734784 9.10534 0.48043 9.29287 0.292893C9.48041 0.105357 9.73476 0 9.99998 0V0ZM12 18C12 18.5304 11.7893 19.0391 11.4142 19.4142C11.0391 19.7893 10.5304 20 9.99998 20C9.46955 20 8.96084 19.7893 8.58577 19.4142C8.21069 19.0391 7.99998 18.5304 7.99998 18H12Z" fill="#5C5F62"/>
</svg>
