<svg width="18" height="18" viewBox="0 0 18 18" fill="none" xmlns="http://www.w3.org/2000/svg">
<path d="M10.0001 1.59605e-06H16.0001C16.5305 1.59605e-06 17.0392 0.210715 17.4143 0.585788C17.7894 0.960861 18.0001 1.46957 18.0001 2V8C18.0007 8.39419 17.9233 8.7846 17.7725 9.14877C17.6216 9.51295 17.4003 9.8437 17.1211 10.122L10.1211 17.122C9.55852 17.6844 8.7956 18.0004 8.0001 18.0004C7.20461 18.0004 6.44169 17.6844 5.8791 17.122L0.879103 12.122C0.600474 11.8434 0.37945 11.5127 0.228654 11.1487C0.0778583 10.7847 0.000244141 10.3945 0.000244141 10.0005C0.000244141 9.60649 0.0778583 9.21634 0.228654 8.85233C0.37945 8.48832 0.600474 8.15758 0.879103 7.879L7.8791 0.879002C8.15732 0.600007 8.48792 0.378731 8.8519 0.227885C9.21589 0.0770387 9.6061 -0.000405422 10.0001 1.59605e-06ZM13.0001 7C13.5305 7 14.0392 6.78929 14.4143 6.41422C14.7894 6.03914 15.0001 5.53043 15.0001 5C15.0001 4.46957 14.7894 3.96086 14.4143 3.58579C14.0392 3.21072 13.5305 3 13.0001 3C12.4697 3 11.961 3.21072 11.5859 3.58579C11.2108 3.96086 11.0001 4.46957 11.0001 5C11.0001 5.53043 11.2108 6.03914 11.5859 6.41422C11.961 6.78929 12.4697 7 13.0001 7Z" fill="#5C5F62"/>
</svg>
