<svg width="20" height="20" viewBox="0 0 20 20" fill="none" xmlns="http://www.w3.org/2000/svg">
<path fill-rule="evenodd" clip-rule="evenodd" d="M7.3479 2.79987C7.3479 1.80599 8.1526 1 9.14778 1H10.6976C11.6914 1 12.4987 1.80599 12.4987 2.79987V3.6551C12.4987 3.85336 12.6296 4.08272 12.8965 4.22007C13.0792 4.31596 13.2568 4.42092 13.4291 4.53236C13.6831 4.69822 13.95 4.70081 14.1237 4.59974L14.87 4.16953C15.2833 3.93098 15.7744 3.86631 16.2354 3.98975C16.6963 4.11319 17.0894 4.41463 17.3282 4.8278L18.1044 6.17155C18.3425 6.58508 18.4067 7.07619 18.2831 7.53706C18.1594 7.99793 17.8579 8.39089 17.4448 8.62969L16.6401 9.09488C16.4704 9.19207 16.3395 9.41754 16.3486 9.71298C16.3545 9.89741 16.3528 10.082 16.3434 10.2663C16.3278 10.5682 16.46 10.8002 16.6323 10.8999L17.4448 11.369C18.3065 11.8666 18.6007 12.9667 18.1044 13.8272L17.3282 15.1709C17.0892 15.5838 16.6961 15.885 16.2353 16.0084C15.7744 16.1318 15.2834 16.0674 14.87 15.8292L13.9993 15.3264C13.8282 15.2279 13.5691 15.2279 13.3177 15.3847C13.1804 15.4699 13.0399 15.5499 12.8965 15.6244C12.6296 15.7644 12.4974 15.9924 12.4974 16.1907V17.1988C12.4974 17.6763 12.3078 18.1342 11.9703 18.472C11.6328 18.8097 11.175 18.9997 10.6976 19H9.14778C8.91119 19.0002 8.6769 18.9537 8.4583 18.8632C8.23969 18.7728 8.04107 18.6401 7.87378 18.4728C7.70649 18.3055 7.57382 18.1069 7.48337 17.8883C7.39291 17.6697 7.34644 17.4354 7.34661 17.1988V16.1907C7.34661 15.9924 7.21444 15.7631 6.9488 15.6244C6.80545 15.5498 6.66498 15.4699 6.52766 15.3847C6.27628 15.2279 6.01582 15.2292 5.84607 15.3264L4.97529 15.8292C4.5618 16.0678 4.0705 16.1325 3.60933 16.0091C3.14817 15.8856 2.75487 15.5842 2.51585 15.1709L1.74096 13.8272C1.50252 13.4137 1.43805 12.9225 1.56174 12.4615C1.68543 12.0005 1.98714 11.6076 2.40053 11.369L3.213 10.8999C3.38534 10.8002 3.51751 10.5682 3.50196 10.265C3.49244 10.0811 3.49071 9.89697 3.49678 9.71298C3.50585 9.41754 3.37497 9.19336 3.20522 9.09488L2.40053 8.62969C1.98714 8.39114 1.68543 7.99817 1.56174 7.5372C1.43805 7.07622 1.50252 6.585 1.74096 6.17155L2.51585 4.8278C2.63408 4.62305 2.79149 4.4436 2.97909 4.29969C3.16669 4.15579 3.3808 4.05026 3.60919 3.98913C3.83759 3.928 4.07579 3.91247 4.31019 3.94342C4.54459 3.97438 4.77059 4.05121 4.97529 4.16953L5.72167 4.59974C5.89401 4.70081 6.16225 4.69822 6.41493 4.53236C6.58763 4.41993 6.76581 4.31614 6.9488 4.22137C7.21444 4.08142 7.3479 3.85336 7.3479 3.6551V2.79987ZM9.92266 12.6622C10.61 12.6622 11.2692 12.3892 11.7552 11.9032C12.2412 11.4171 12.5143 10.758 12.5143 10.0706C12.5143 9.38328 12.2412 8.7241 11.7552 8.23808C11.2692 7.75206 10.61 7.47901 9.92266 7.47901C9.23533 7.47901 8.57614 7.75206 8.09012 8.23808C7.6041 8.7241 7.33106 9.38328 7.33106 10.0706C7.33106 10.758 7.6041 11.4171 8.09012 11.9032C8.57614 12.3892 9.23533 12.6622 9.92266 12.6622Z" fill="#5C5F62"/>
</svg>
