<svg width="20" height="20" viewBox="0 0 20 20" fill="none" xmlns="http://www.w3.org/2000/svg">
<path fill-rule="evenodd" clip-rule="evenodd" d="M4.31539 9.12539H2.98923V15.7562H4.31539V9.12539ZM7.41859 18.2043C9.3865 19.106 11.5339 19.5477 13.6979 19.4959L14.2165 19.4827C15.397 19.4547 16.529 19.0076 17.4101 18.2213C18.2911 17.4351 18.8636 16.361 19.0251 15.1912L19.472 11.9448C19.5433 11.4287 19.5031 10.9033 19.3542 10.404C19.2053 9.90466 18.9511 9.44307 18.6088 9.05026C18.2665 8.65744 17.844 8.34254 17.3698 8.12674C16.8956 7.91094 16.3806 7.79927 15.8596 7.79924H13.7457C13.6992 7.7993 13.6532 7.78959 13.6107 7.77074C13.5682 7.75188 13.5302 7.7243 13.499 7.68978C13.4679 7.65527 13.4444 7.61459 13.43 7.57039C13.4156 7.52619 13.4106 7.47945 13.4155 7.43322L13.5918 5.76226C13.6483 5.22444 13.5912 4.68074 13.424 4.16644C13.2569 3.65213 12.9835 3.17869 12.6217 2.77681C12.2598 2.37494 11.8175 2.0536 11.3235 1.83364C10.8295 1.61369 10.2947 1.50001 9.75395 1.5H9.27123C8.60815 1.5 8.04056 1.97476 7.92253 2.62723L7.84959 3.02773C7.55105 4.66831 6.64402 6.13565 5.31 7.13616H2.65769C1.74265 7.13616 1 7.87881 1 8.79385V16.0877C1 17.0028 1.74265 17.7454 2.65769 17.7454H5.76753C6.1972 17.7454 6.62157 17.8382 7.01146 18.0173L7.41859 18.2043Z" fill="#5C5F62"/>
</svg>
