<svg width="20" height="20" viewBox="0 0 20 20" fill="none" xmlns="http://www.w3.org/2000/svg">
<path fill-rule="evenodd" clip-rule="evenodd" d="M11.1163 17.0345C13.1132 15.2354 16.1034 11.1589 16.1034 6.41283C16.1034 2.87097 13.1696 0 9.55172 0C5.93386 0 3 2.87097 3 6.41283C3 11.1589 5.99021 15.2354 7.98717 17.0345H3.98276C3.72211 17.0345 3.47215 17.138 3.28784 17.3223C3.10354 17.5066 3 17.7566 3 18.0172C3 18.2779 3.10354 18.5279 3.28784 18.7122C3.47215 18.8965 3.72211 19 3.98276 19H15.1207C15.3813 19 15.6313 18.8965 15.8156 18.7122C15.9999 18.5279 16.1034 18.2779 16.1034 18.0172C16.1034 17.7566 15.9999 17.5066 15.8156 17.3223C15.6313 17.138 15.3813 17.0345 15.1207 17.0345H11.1163ZM12.1724 6.55172C12.1724 7.24677 11.8963 7.91336 11.4048 8.40483C10.9134 8.89631 10.2468 9.17241 9.55172 9.17241C8.85667 9.17241 8.19009 8.89631 7.69862 8.40483C7.20714 7.91336 6.93103 7.24677 6.93103 6.55172C6.93103 5.85667 7.20714 5.19009 7.69862 4.69862C8.19009 4.20714 8.85667 3.93103 9.55172 3.93103C10.2468 3.93103 10.9134 4.20714 11.4048 4.69862C11.8963 5.19009 12.1724 5.85667 12.1724 6.55172Z" fill="#5C5F62"/>
</svg>
